<svg width="38" height="38" viewBox="0 0 38 38" fill="none" xmlns="http://www.w3.org/2000/svg">
<circle cx="18.9999" cy="18.9999" r="3.35294" fill="#A0A4A8"/>
<path fill-rule="evenodd" clip-rule="evenodd" d="M29.0661 18.4034C29.0444 18.401 29.0223 18.3998 29 18.3998L26 18.3998C25.6686 18.3998 25.4 18.6684 25.4 18.9998C25.4 19.3311 25.6686 19.5998 26 19.5998H29C29.0223 19.5998 29.0444 19.5985 29.0661 19.5962C28.769 24.6901 24.6904 28.7687 19.5964 29.0658C19.5988 29.0441 19.6 29.0221 19.6 28.9998V25.9998C19.6 25.6684 19.3314 25.3998 19 25.3998C18.6686 25.3998 18.4 25.6684 18.4 25.9998L18.4 28.9998C18.4 29.0221 18.4012 29.0441 18.4036 29.0658C13.3097 28.7687 9.23118 24.6901 8.93409 19.5962C8.95573 19.5985 8.97773 19.5998 9 19.5998H12C12.3314 19.5998 12.6 19.3311 12.6 18.9998C12.6 18.6684 12.3314 18.3998 12 18.3998H9C8.97773 18.3998 8.95574 18.401 8.9341 18.4033C9.23127 13.3095 13.3097 9.23102 18.4036 8.93386C18.4012 8.9555 18.4 8.97748 18.4 8.99976V11.9998C18.4 12.3311 18.6686 12.5998 19 12.5998C19.3314 12.5998 19.6 12.3311 19.6 11.9998L19.6 8.99976C19.6 8.97748 19.5988 8.95549 19.5964 8.93385C24.6903 9.23094 28.7689 13.3095 29.0661 18.4034ZM19.0001 30.0832C25.1212 30.0832 30.0834 25.121 30.0834 18.9998C30.0834 12.8787 25.1212 7.9165 19.0001 7.9165C12.8789 7.9165 7.91675 12.8787 7.91675 18.9998C7.91675 25.121 12.8789 30.0832 19.0001 30.0832Z" fill="#A0A4A8"/>
</svg>
