<svg width="153" height="26" viewBox="0 0 153 26" fill="none" xmlns="http://www.w3.org/2000/svg">
<path fill-rule="evenodd" clip-rule="evenodd" d="M8.16564 18.3879L0 13L8.16564 7.61208C10.2135 3.12133 14.7422 0 20 0H140C147.18 0 153 5.8203 153 13C153 20.1797 147.18 26 140 26H20C14.7422 26 10.2135 22.8787 8.16564 18.3879Z" fill="#FFE7EC"/>
<path d="M22.623 8.28125C23.584 8.28711 24.3691 8.83203 24.832 9.78125H27.4277V7.49609H28.5293V18.0195H27.4277V13.9883H24.9082C24.457 15.043 23.6367 15.6582 22.623 15.6523C21.0586 15.6582 19.9512 14.2285 19.9629 11.9609C19.9512 9.7168 21.0586 8.28711 22.623 8.28125ZM21.0176 11.9609C21.0234 13.6309 21.6738 14.6562 22.623 14.6562C23.5723 14.6562 24.2227 13.6309 24.2285 11.9609C24.2227 10.3145 23.5723 9.2832 22.623 9.27734C21.6738 9.2832 21.0234 10.3145 21.0176 11.9609ZM25.1484 10.6953C25.2305 11.082 25.2832 11.5039 25.2832 11.9609C25.2832 12.3594 25.248 12.7285 25.1777 13.0742H27.4277V10.6953H25.1484ZM38.8887 7.49609V18.0195H37.7871V12.3711H35.8652V11.4453H37.7871V7.49609H38.8887ZM30.5098 9.34766V8.44531H35.2441V12.1953H31.6465V14.5859C33.3223 14.5742 34.6113 14.5215 36.0762 14.2578L36.1699 15.1719C34.5996 15.4473 33.2168 15.5117 31.3652 15.5234H30.5332V11.293H34.166V9.34766H30.5098ZM50.1152 12.9922V13.8828H45.9434V15.8164H44.8418V13.8828H40.5059V12.9922H50.1152ZM41.7012 17.7734V14.9023H42.8027V16.8711H49.0488V17.7734H41.7012ZM41.7715 12.0664V7.82422H42.873V9.10156H47.7363V7.82422H48.8496V12.0664H41.7715ZM42.873 11.1758H47.7363V9.93359H42.873V11.1758ZM59.584 7.49609V18.0195H58.4707V7.49609H59.584ZM51.252 11.9609C51.252 9.7168 52.3828 8.28711 53.9707 8.28125C55.5293 8.28711 56.6777 9.7168 56.6777 11.9609C56.6777 14.2285 55.5293 15.6582 53.9707 15.6523C52.3828 15.6582 51.252 14.2285 51.252 11.9609ZM52.3301 11.9609C52.3242 13.6309 52.9922 14.6562 53.9707 14.6562C54.9316 14.6562 55.5996 13.6309 55.5996 11.9609C55.5996 10.3145 54.9316 9.2832 53.9707 9.27734C52.9922 9.2832 52.3242 10.3145 52.3301 11.9609ZM67.6113 8.24609C69.2695 8.24023 70.4648 9.26562 70.4707 10.7422C70.4648 12.2188 69.2695 13.2441 67.6113 13.25C65.959 13.2441 64.7461 12.2188 64.752 10.7422C64.7461 9.26562 65.959 8.24023 67.6113 8.24609ZM64.248 14.832C66.1582 14.832 68.8066 14.8145 71.1035 14.4805L71.1855 15.2891C68.8125 15.7461 66.2637 15.7578 64.3887 15.7578L64.248 14.832ZM65.8535 10.7422C65.8418 11.6738 66.5918 12.2773 67.6113 12.2773C68.6309 12.2773 69.3809 11.6738 69.3809 10.7422C69.3809 9.82227 68.6309 9.20703 67.6113 9.20703C66.5918 9.20703 65.8418 9.82227 65.8535 10.7422ZM71.7598 18.0195V7.49609H72.873V18.0195H71.7598ZM83.3145 7.50781V15.3008H82.2012V12.8867H79.5176V11.9727H82.2012V10.5312H79.6641C78.9199 12.166 77.3438 13.3965 75.2051 14.0703L74.7246 13.1914C77.1152 12.418 78.7031 10.9941 78.9258 9.20703H75.2637V8.31641H80.1387C80.1387 8.77344 80.0801 9.21289 79.9805 9.62891H82.2012V7.50781H83.3145ZM76.5527 17.7734V14.5273H77.6777V16.8711H83.584V17.7734H76.5527ZM93.627 7.49609V18.0195H92.5137V7.49609H93.627ZM85.2949 11.9609C85.2949 9.7168 86.4258 8.28711 88.0137 8.28125C89.5723 8.28711 90.7207 9.7168 90.7207 11.9609C90.7207 14.2285 89.5723 15.6582 88.0137 15.6523C86.4258 15.6582 85.2949 14.2285 85.2949 11.9609ZM86.373 11.9609C86.3672 13.6309 87.0352 14.6562 88.0137 14.6562C88.9746 14.6562 89.6426 13.6309 89.6426 11.9609C89.6426 10.3145 88.9746 9.2832 88.0137 9.27734C87.0352 9.2832 86.3672 10.3145 86.373 11.9609ZM106.623 7.92969V8.69141C106.629 9.48242 106.629 10.4375 106.377 11.6445H107.842V12.5352H103.564V14.0645C105.521 14.1758 106.688 14.873 106.693 16.0039C106.688 17.2754 105.299 17.9785 103.014 17.9727C100.711 17.9785 99.3223 17.2754 99.3223 16.0039C99.3223 14.8672 100.494 14.1758 102.463 14.0645V12.5352H98.2324V11.6445H105.258C105.51 10.4668 105.521 9.59961 105.521 8.82031H99.4395V7.92969H106.623ZM100.447 16.0039C100.436 16.707 101.385 17.0879 103.014 17.082C104.619 17.0879 105.568 16.707 105.58 16.0039C105.568 15.3242 104.619 14.9492 103.014 14.9492C101.385 14.9492 100.436 15.3242 100.447 16.0039ZM116.994 8.02344V8.82031C117 9.64062 117 10.5898 116.725 11.8555H118.213V12.7695H108.604V11.8555H115.6C115.881 10.6309 115.893 9.73438 115.893 8.9375H109.811V8.02344H116.994ZM109.775 17.8672V14.1055H117.006V17.8672H109.775ZM110.865 16.9648H115.904V14.9844H110.865V16.9648ZM124.166 9.23047V10.1328H118.951V9.23047H121.014V7.80078H122.115V9.23047H124.166ZM119.291 13.1797C119.285 11.7676 120.246 10.7656 121.564 10.7656C122.895 10.7656 123.844 11.7676 123.85 13.1797C123.844 14.6152 122.895 15.623 121.564 15.6172C120.246 15.623 119.285 14.6152 119.291 13.1797ZM120.275 13.1797C120.27 14.0703 120.809 14.668 121.564 14.668C122.32 14.668 122.865 14.0703 122.865 13.1797C122.865 12.3066 122.32 11.6973 121.564 11.6914C120.809 11.6973 120.27 12.3066 120.275 13.1797ZM124.646 17.5039V7.73047H125.701V11.8672H126.908V7.49609H127.963V17.9961H126.908V12.7812H125.701V17.5039H124.646ZM138.955 15.7578V16.6836H129.346V15.7578H131.643V13.0156C130.781 12.541 130.254 11.791 130.26 10.8477C130.254 9.19531 131.877 8.11133 134.127 8.10547C136.383 8.11133 138.006 9.19531 138.006 10.8477C138.006 11.7734 137.502 12.5176 136.658 12.9922V15.7578H138.955ZM131.338 10.8477C131.338 11.9727 132.48 12.7051 134.127 12.7109C135.762 12.7051 136.922 11.9727 136.928 10.8477C136.922 9.7168 135.762 8.99609 134.127 8.99609C132.48 8.99609 131.338 9.7168 131.338 10.8477ZM132.744 15.7578H135.533V13.4258C135.105 13.5254 134.631 13.5781 134.127 13.5781C133.635 13.5781 133.166 13.5254 132.744 13.4258V15.7578ZM141.65 8.51562L141.545 14.5508H140.385L140.279 8.51562H141.65ZM140.139 16.25C140.133 15.793 140.514 15.418 140.971 15.418C141.422 15.418 141.797 15.793 141.803 16.25C141.797 16.707 141.422 17.0762 140.971 17.082C140.514 17.0762 140.133 16.707 140.139 16.25Z" fill="#1F1F1F"/>
</svg>
