<svg width="130" height="74" viewBox="0 0 130 74" fill="none" xmlns="http://www.w3.org/2000/svg">
<path d="M24.8291 54.5409C24.8291 64.2534 20.9442 66.9568 15.0045 72.8966C13.5332 74.3678 10.5788 74.3678 9.1075 72.8966C3.09499 66.884 0 64.2637 0 54.5409C0 47.6147 5.55817 42 12.4145 42C19.2709 42 24.8291 47.6147 24.8291 54.5409Z" fill="#FF2A53"/>
<path d="M7.8878 49.8758C9.69057 49.5528 11.6225 51.917 12.203 55.1565C12.7834 58.396 11.7926 61.284 9.98979 61.607C8.18702 61.93 6.25504 59.5658 5.67459 56.3263C5.09415 53.0868 6.08503 50.1988 7.8878 49.8758Z" fill="white"/>
<path d="M14.0902 49.6541C16.2725 49.2631 18.5374 51.7131 19.1489 55.1264C19.7605 58.5396 18.4872 61.6236 16.3049 62.0146C14.1226 62.4057 11.8577 59.9557 11.2461 56.5424C10.6346 53.1291 11.9079 50.0452 14.0902 49.6541Z" fill="white"/>
<path d="M9.26556 53.7276C10.079 53.6844 10.8718 54.6636 11.0364 55.9148C11.201 57.1661 10.675 58.2154 9.86152 58.2586C9.04809 58.3019 8.25526 57.3226 8.09069 56.0714C7.92612 54.8202 8.45212 53.7708 9.26556 53.7276Z" fill="#FF2A53"/>
<path d="M14.5016 53.8624C15.3632 53.8166 16.2029 54.8538 16.3773 56.1791C16.5516 57.5044 15.9944 58.6159 15.1328 58.6617C14.2712 58.7075 13.4314 57.6703 13.2571 56.345C13.0828 55.0197 13.64 53.9082 14.5016 53.8624Z" fill="#FF2A53"/>
<path d="M5.448 53.8481H7.84268V61.4313H5.448V53.8481Z" fill="white"/>
<path d="M5.448 53.8481H7.84268V61.4313H5.448V53.8481Z" fill="white"/>
<path d="M16.7943 59.8599L15.8249 62.0303L9.73837 61.6312L9.23679 59.2365L12.3326 58.6379L16.7943 59.8599Z" fill="white"/>
<path d="M16.7943 59.8599L15.8249 62.0303L9.73837 61.6312L9.23679 59.2365L12.3326 58.6379L16.7943 59.8599Z" fill="white"/>
<g filter="url(#filter0_d_961_1399)">
<path fill-rule="evenodd" clip-rule="evenodd" d="M27 10C19.8203 10 14 15.8203 14 23C14 26.6601 15.5126 29.9669 17.9467 32.3294L19.393 39.8842L27.2461 36H107C114.18 36 120 30.1797 120 23C120 15.8203 114.18 10 107 10H27Z" fill="#FFF0F3"/>
</g>
<path d="M37.2598 17.4609V25.2305H35.959V21.668H33.9199V20.5898H35.959V17.4609H37.2598ZM28.5293 23.0742C30.8086 22.3535 32.3145 21 32.5664 19.3242H29.0801V18.2578H33.9902C33.9902 21.0527 32.1445 23.1387 29.0801 24.1172L28.5293 23.0742ZM30.3574 27.832V24.4453H31.6816V26.7773H37.5293V27.832H30.3574ZM48.416 21.75V22.7812H44.2207V23.5781H47.209V26.1797H41.1855V26.9531H47.502V27.9492H39.9082V25.2422H45.9316V24.5625H39.8965V23.5781H42.9199V22.7812H38.7598V21.75H48.416ZM39.9785 21.082V17.7773H47.1738V21.082H39.9785ZM41.2559 20.0625H45.873V18.7969H41.2559V20.0625ZM53.9473 17.6133C56.3613 17.6191 57.7617 18.2578 57.7676 19.4297C57.7617 20.6133 56.3613 21.252 53.9473 21.2578C51.5391 21.252 50.127 20.6133 50.127 19.4297C50.127 18.2578 51.5391 17.6191 53.9473 17.6133ZM49.1309 22.8633V21.8203H58.7871V22.8633H49.1309ZM50.2676 24.5391V23.5781H57.5801V26.168H51.5566V26.9531H57.873V27.9492H50.2793V25.2422H56.3027V24.5391H50.2676ZM51.498 19.4297C51.4922 20.0156 52.3359 20.2852 53.9473 20.2852C55.582 20.2852 56.4199 20.0156 56.4199 19.4297C56.4199 18.8848 55.582 18.5742 53.9473 18.5742C52.3359 18.5742 51.4922 18.8848 51.498 19.4297ZM70.8457 17.8828V18.7617C70.8516 19.5879 70.8516 20.4902 70.623 21.6211H71.9824V22.6641H62.373V21.6211H69.3281C69.3984 21.2461 69.4453 20.9004 69.4805 20.5723L63.4277 20.8242L63.2754 19.8164L69.5332 19.6641C69.5449 19.4062 69.5449 19.1602 69.5449 18.9141H63.5449V17.8828H70.8457ZM63.4395 24.4219V23.4258H70.9043V26.0977H64.752V26.8945H71.2793V27.9141H63.4629V25.1484H69.6035V24.4219H63.4395ZM81.5449 17.4609V23.9414H80.2324V17.4609H81.5449ZM73.2598 19.1133V18.0586H78.1465V21.1992H74.5605V22.3828C76.3711 22.377 77.666 22.3125 79.1777 22.0898L79.3418 23.1328C77.6719 23.4023 76.2363 23.4551 74.1855 23.4492H73.2832V20.1914H76.8574V19.1133H73.2598ZM74.3145 25.5V24.4336H81.5449V28.043H80.2324V25.5H74.3145ZM88.2598 19.1367V20.1797H83.0684V19.1367H85.0371V17.7539H86.3262V19.1367H88.2598ZM83.373 23.2031C83.3613 21.7617 84.3398 20.7363 85.6816 20.7422C87.0293 20.7363 87.9902 21.7617 87.9902 23.2031C87.9902 24.6738 87.0293 25.6992 85.6816 25.6992C84.3398 25.6992 83.3613 24.6738 83.373 23.2031ZM84.5215 23.2031C84.5156 24.0586 84.9961 24.5918 85.6816 24.5859C86.3613 24.5918 86.8418 24.0586 86.8418 23.2031C86.8418 22.3711 86.3613 21.8203 85.6816 21.8203C84.9961 21.8203 84.5156 22.3711 84.5215 23.2031ZM88.7051 27.5625V17.6719H89.9238V21.8086H90.9551V17.4492H92.1973V28.043H90.9551V22.8633H89.9238V27.5625H88.7051ZM95.291 18.3047V19.7227H98.0449V18.3047H99.3457V23.1445H97.3301V24.8438C98.2031 24.8027 99.0703 24.7324 99.8848 24.6211L99.9785 25.582C97.7578 25.9629 95.3379 25.9805 93.5215 25.9922L93.334 24.9141C94.1367 24.9082 95.0625 24.9082 96.0293 24.8848V23.1445H94.002V18.3047H95.291ZM95.291 22.1016H98.0449V20.7188H95.291V22.1016ZM100.494 28.043V17.4492H101.795V21.75H103.33V22.8398H101.795V28.043H100.494ZM106.014 18.5156L105.885 24.5039H104.561L104.42 18.5156H106.014ZM104.314 26.1797C104.309 25.6875 104.725 25.2832 105.229 25.2773C105.715 25.2832 106.131 25.6875 106.131 26.1797C106.131 26.6836 105.715 27.0938 105.229 27.0938C104.725 27.0938 104.309 26.6836 104.314 26.1797Z" fill="#1F1F1F"/>
<defs>
<filter id="filter0_d_961_1399" x="4" y="0" width="126" height="49.8843" filterUnits="userSpaceOnUse" color-interpolation-filters="sRGB">
<feFlood flood-opacity="0" result="BackgroundImageFix"/>
<feColorMatrix in="SourceAlpha" type="matrix" values="0 0 0 0 0 0 0 0 0 0 0 0 0 0 0 0 0 0 127 0" result="hardAlpha"/>
<feOffset/>
<feGaussianBlur stdDeviation="5"/>
<feComposite in2="hardAlpha" operator="out"/>
<feColorMatrix type="matrix" values="0 0 0 0 0 0 0 0 0 0 0 0 0 0 0 0 0 0 0.3 0"/>
<feBlend mode="normal" in2="BackgroundImageFix" result="effect1_dropShadow_961_1399"/>
<feBlend mode="normal" in="SourceGraphic" in2="effect1_dropShadow_961_1399" result="shape"/>
</filter>
</defs>
</svg>
