<svg width="320" height="320" viewBox="0 0 320 320" fill="none" xmlns="http://www.w3.org/2000/svg">
<g clip-path="url(#clip0_483_497)">
<rect width="320" height="320" rx="80" fill="#FF2B53"/>
<path d="M297.764 154.369C297.764 263.101 232.818 312.11 165.032 378.922C161.089 382.809 154.735 382.809 150.807 378.907C82.1497 310.708 26 263.173 26 154.369C26 79.0545 86.8364 18 161.882 18C236.927 18 297.764 79.0545 297.764 154.369Z" fill="#FF2A53"/>
<ellipse cx="64.8294" cy="36.2797" rx="64.8294" ry="36.2797" transform="matrix(-0.177443 -0.98385 0.984793 -0.175302 99.6145 226.9)" fill="white"/>
<path d="M180.222 90.5639C204.109 86.3119 228.899 112.953 235.593 150.069C242.287 187.185 228.35 220.72 204.464 224.972C180.578 229.224 155.787 202.582 149.093 165.467C142.399 128.351 156.336 94.8158 180.222 90.5639Z" fill="white"/>
<ellipse cx="24.8607" cy="16.1327" rx="24.8607" ry="16.1327" transform="matrix(-0.131193 -0.990927 0.999268 -0.0527614 117.817 184.977)" fill="#FF2A53"/>
<ellipse cx="26.3328" cy="17.088" rx="26.3328" ry="17.088" transform="matrix(-0.131193 -0.990927 0.999268 -0.0527614 174.558 189.416)" fill="#FF2A53"/>
<rect x="85.6315" y="136.172" width="26.2107" height="82.459" fill="white"/>
<rect x="85.6315" y="136.172" width="26.2107" height="82.459" fill="white"/>
<path d="M209.821 201.54L199.21 225.141L132.591 220.801L127.101 194.761L160.986 188.252L209.821 201.54Z" fill="white"/>
<path d="M209.821 201.54L199.21 225.141L132.591 220.801L127.101 194.761L160.986 188.252L209.821 201.54Z" fill="white"/>
<ellipse cx="64.8294" cy="36.2797" rx="64.8294" ry="36.2797" transform="matrix(-0.177443 -0.98385 0.984793 -0.175302 99.6145 226.9)" fill="white"/>
<path d="M180.222 90.5639C204.109 86.3119 228.899 112.953 235.593 150.069C242.287 187.185 228.35 220.72 204.464 224.972C180.578 229.224 155.787 202.582 149.093 165.467C142.399 128.351 156.336 94.8158 180.222 90.5639Z" fill="white"/>
<ellipse cx="24.8607" cy="16.1327" rx="24.8607" ry="16.1327" transform="matrix(-0.131193 -0.990927 0.999268 -0.0527614 117.817 184.977)" fill="#FF2A53"/>
<ellipse cx="26.3328" cy="17.088" rx="26.3328" ry="17.088" transform="matrix(-0.131193 -0.990927 0.999268 -0.0527614 174.558 189.416)" fill="#FF2A53"/>
<rect x="85.6315" y="136.172" width="26.2107" height="82.459" fill="white"/>
<rect x="85.6315" y="136.172" width="26.2107" height="82.459" fill="white"/>
<path d="M209.821 201.54L199.21 225.141L132.591 220.801L127.101 194.761L160.986 188.252L209.821 201.54Z" fill="white"/>
<path d="M209.821 201.54L199.21 225.141L132.591 220.801L127.101 194.761L160.986 188.252L209.821 201.54Z" fill="white"/>
</g>
<defs>
<clipPath id="clip0_483_497">
<rect width="320" height="320" rx="80" fill="white"/>
</clipPath>
</defs>
</svg>
