<svg width="151" height="205" viewBox="0 0 151 205" fill="none" xmlns="http://www.w3.org/2000/svg">
<path d="M150.402 75.9664C150.402 134.8 116.492 162.244 80.1685 197.877C76.1977 201.772 69.8081 201.773 65.8639 197.851C29.3415 161.532 0 134.862 0 75.9664C0 34.0113 33.6686 0 75.201 0C116.733 0 150.402 34.0113 150.402 75.9664Z" fill="#FF2A53"/>
<ellipse cx="54.147" cy="77.2972" rx="36.0968" ry="20.0878" transform="rotate(-100.158 54.147 77.2972)" fill="white"/>
<path d="M85.3512 40.4228C98.5705 38.0542 112.29 52.8952 115.995 73.571C119.699 94.2469 111.986 112.928 98.767 115.297C85.5478 117.665 71.8282 102.824 68.1235 82.1485C64.4189 61.4727 72.132 42.7914 85.3512 40.4228Z" fill="white"/>
<ellipse cx="13.8416" cy="8.93439" rx="13.8416" ry="8.93439" transform="matrix(-0.130407 -0.991461 0.998591 -0.053072 50.8141 93.0171)" fill="#FF2A53"/>
<ellipse cx="14.6612" cy="9.46344" rx="14.6612" ry="9.46344" transform="matrix(-0.130407 -0.991461 0.998591 -0.053072 82.2162 95.4897)" fill="#FF2A53"/>
<rect x="33.0018" y="65.8296" width="14.5058" height="45.935" fill="white"/>
<rect x="33.0018" y="65.8296" width="14.5058" height="45.935" fill="white"/>
<path d="M101.732 102.244L95.8595 115.391L58.9905 112.973L55.9522 98.4674L74.7051 94.8413L101.732 102.244Z" fill="white"/>
<path d="M101.732 102.244L95.8595 115.391L58.9905 112.973L55.9522 98.4674L74.7051 94.8413L101.732 102.244Z" fill="white"/>
<ellipse cx="54.147" cy="77.2972" rx="36.0968" ry="20.0878" transform="rotate(-100.158 54.147 77.2972)" fill="white"/>
<path d="M85.3512 40.4228C98.5705 38.0542 112.29 52.8952 115.995 73.571C119.699 94.2469 111.986 112.928 98.767 115.297C85.5478 117.665 71.8282 102.824 68.1235 82.1485C64.4189 61.4727 72.132 42.7914 85.3512 40.4228Z" fill="white"/>
<ellipse cx="13.8416" cy="8.93439" rx="13.8416" ry="8.93439" transform="matrix(-0.130407 -0.991461 0.998591 -0.053072 50.8141 93.0171)" fill="#FF2A53"/>
<ellipse cx="14.6612" cy="9.46344" rx="14.6612" ry="9.46344" transform="matrix(-0.130407 -0.991461 0.998591 -0.053072 82.2162 95.4897)" fill="#FF2A53"/>
<rect x="33.0018" y="65.8296" width="14.5058" height="45.935" fill="white"/>
<rect x="33.0018" y="65.8296" width="14.5058" height="45.935" fill="white"/>
<path d="M101.732 102.244L95.8595 115.391L58.9905 112.973L55.9522 98.4674L74.7051 94.8413L101.732 102.244Z" fill="white"/>
<path d="M101.732 102.244L95.8595 115.391L58.9905 112.973L55.9522 98.4674L74.7051 94.8413L101.732 102.244Z" fill="white"/>
</svg>
