<svg width="40" height="21" viewBox="0 0 40 21" fill="none" xmlns="http://www.w3.org/2000/svg">
<path d="M28.649 11.9725V20.6521H24.8835V11.9725H28.649ZM29.2283 16.21C29.6627 14.4904 31.0903 13.5897 33.2834 13.5897C33.7593 13.5897 34.2558 13.6307 34.7937 13.7125V11.9725H38.5385V16.3123C38.5385 19.5057 36.573 21.0001 33.3662 21.0001C30.4489 21.0001 28.5869 18.6664 29.2283 16.21ZM21.0559 1.98284C23.0007 1.53248 24.9455 1.00024 26.58 1.00024C27.6352 1.00024 28.5662 1.22542 29.311 1.83954C30.9455 3.21108 30.7386 5.52426 29.8696 8.53346L29.0834 11.0513H21.0559V1.98284ZM34.4834 1.36872V4.60308H35.5386V1.36872H39.0558V11.2356H35.5386V7.67369H34.4834V11.1742H30.9662V1.36872H34.4834ZM33.3041 17.8067C34.0696 17.8271 34.6075 17.4791 34.7524 16.5989C34.3386 16.4351 33.8834 16.3328 33.4696 16.3328C33.0351 16.3328 32.6627 16.4556 32.5386 16.7627C32.3524 17.1926 32.7041 17.7862 33.3041 17.8067ZM26.3524 4.13226C26.1662 3.98896 25.9386 3.92755 25.711 3.92755C25.2559 3.92755 24.8007 4.13226 24.5938 4.19367V8.36969H26.249C26.9731 6.65015 27.2007 4.70544 26.3524 4.13226Z" fill="#FF2B53"/>
<path d="M15.032 9.78019C14.6332 11.7002 13.5367 13.0802 11.1243 13.0802C10.0876 13.0802 8.85154 12.8202 8.21356 12.4002C7.75501 12.7402 7.07715 13.0802 6.10025 13.0802C5.06353 13.0802 4.5053 12.8202 4.02681 12.4602V13.2802H1.05621V5.55579H4.04675V4.72022C4.42555 4.48023 4.92397 4.38023 5.42239 4.38023C5.861 4.38023 6.29962 4.46023 6.65848 4.64023L6.10025 5.55579H9.01103L9.56927 4.72022C9.92813 4.50022 10.4266 4.40023 10.905 4.40023C11.3636 4.40023 11.8421 4.48023 12.2009 4.64023L11.6427 5.55579H14.6532L15.2114 6.38021H16.1285V2.00024H19.5178V14.3202H16.1285V9.78019H15.032ZM8.97116 14.4002C8.97116 16.1401 9.03097 17.6201 11.1642 17.6201C13.2177 17.6201 15.9491 17.0001 18.8798 15.7601L20.0561 18.6801C16.5272 20.3801 13.9554 21.0001 11.3835 21.0001C10.6259 21.0001 9.86832 20.9401 9.09078 20.8401C5.84107 20.4401 4.96384 17.0201 5.12334 14.4002H8.97116ZM5.34265 7.4202C5.24296 7.04021 5.18315 6.92021 5.04359 6.80021C4.86416 6.58021 4.60498 6.48021 4.36574 6.48021C4.12649 6.48021 3.88725 6.58021 3.70782 6.80021C3.32902 7.18021 3.34896 7.8202 3.70782 8.2002C3.84738 8.3402 3.967 8.4002 4.30593 8.5202C3.967 8.6602 3.84738 8.72019 3.70782 8.86019C3.34896 9.24019 3.34896 9.86019 3.70782 10.2802C3.88725 10.4802 4.12649 10.5802 4.36574 10.5802C4.96384 10.5802 5.22302 10.1402 5.34265 9.64019C5.4822 10.0402 5.54201 10.1402 5.70151 10.2802C5.88094 10.4802 6.12018 10.5802 6.35943 10.5802C6.59867 10.5802 6.83791 10.4802 7.01734 10.2802C7.39614 9.86019 7.39614 9.24019 7.01734 8.86019C6.91766 8.72019 6.7781 8.6602 6.3993 8.5202C6.7781 8.4002 6.91766 8.3402 7.01734 8.2002C7.39614 7.8202 7.41608 7.18021 7.01734 6.80021C6.83791 6.58021 6.57873 6.48021 6.33949 6.48021C6.10025 6.48021 5.861 6.58021 5.70151 6.80021C5.54201 6.92021 5.4822 7.04021 5.34265 7.4202ZM11.0645 7.4202C10.9449 7.04021 10.8851 6.92021 10.7455 6.80021C10.5661 6.58021 10.3269 6.48021 10.0876 6.48021C9.84838 6.48021 9.5892 6.58021 9.40977 6.80021C9.03097 7.18021 9.05091 7.8202 9.40977 8.2002C9.54933 8.3402 9.66895 8.4002 10.0079 8.5202C9.66895 8.6602 9.54933 8.72019 9.40977 8.86019C9.05091 9.24019 9.05091 9.86019 9.40977 10.2802C9.60914 10.4802 9.84838 10.5802 10.0876 10.5802C10.6658 10.5802 10.925 10.1402 11.0645 9.64019C11.1842 10.0402 11.244 10.1402 11.4035 10.2802C11.5829 10.4802 11.8221 10.5802 12.0614 10.5802C12.3006 10.5802 12.5399 10.4802 12.7193 10.2802C13.0981 9.86019 13.0981 9.24019 12.7193 8.86019C12.6196 8.72019 12.4801 8.6602 12.1013 8.5202C12.4801 8.4002 12.6196 8.3402 12.7193 8.2002C13.0981 7.8202 13.118 7.18021 12.7193 6.80021C12.5399 6.58021 12.3006 6.48021 12.0614 6.48021C11.8221 6.48021 11.5829 6.58021 11.4035 6.80021C11.244 6.92021 11.1842 7.04021 11.0645 7.4202Z" fill="#FF2B53"/>
<path d="M8.05629 8.50023C8.05629 9.88093 6.71316 11.0002 5.05631 11.0002C3.39947 11.0002 2.05634 9.88093 2.05634 8.50023C2.05634 7.11952 3.39947 6.00024 5.05631 6.00024C6.71316 6.00024 8.05629 7.11952 8.05629 8.50023Z" fill="#FF2A53"/>
<path d="M13.056 8.50023C13.056 9.88093 11.9367 11.0002 10.556 11.0002C9.17531 11.0002 8.05603 9.88093 8.05603 8.50023C8.05603 7.11952 9.17531 6.00024 10.556 6.00024C11.9367 6.00024 13.056 7.11952 13.056 8.50023Z" fill="#FF2A53"/>
<path fill-rule="evenodd" clip-rule="evenodd" d="M6.6973 8.37697C6.60584 7.99165 6.34533 7.65041 5.95844 7.47027C5.28713 7.15769 4.48953 7.4485 4.17695 8.11982C3.97435 8.55493 4.04503 8.95273 4.10181 9.15072C4.15803 9.34674 4.24367 9.49873 4.28062 9.56286C4.30324 9.6021 4.32486 9.63714 4.33912 9.66013C4.34637 9.67181 4.35153 9.68008 4.35569 9.68674C4.3603 9.69414 4.36367 9.69954 4.36727 9.70539C4.67162 10.3504 5.43305 10.6473 6.09744 10.369C6.78047 10.083 7.10228 9.29737 6.81621 8.61433C6.77627 8.51895 6.73126 8.43566 6.6973 8.37697ZM4.37832 9.72382C4.37827 9.72377 4.37739 9.72229 4.37586 9.71954C4.37761 9.72249 4.37838 9.72387 4.37832 9.72382Z" fill="white"/>
<path fill-rule="evenodd" clip-rule="evenodd" d="M11.9711 8.35884C11.8759 7.98097 11.6175 7.64758 11.2367 7.47027C10.5654 7.15769 9.76779 7.4485 9.45521 8.11982C9.27463 8.50764 9.31762 8.86357 9.36304 9.05487C9.40669 9.23876 9.4778 9.37844 9.50485 9.43067C9.52179 9.46337 9.53751 9.49149 9.54613 9.50685C9.54662 9.50772 9.5471 9.50856 9.54755 9.50937C9.83248 10.1453 10.565 10.462 11.23 10.2196C11.9257 9.9659 12.284 9.19627 12.0304 8.50056C12.0111 8.44776 11.9903 8.39959 11.9711 8.35884ZM9.56169 9.53451C9.56385 9.53844 9.56293 9.53704 9.55984 9.53119C9.56039 9.53217 9.56096 9.53319 9.56169 9.53451Z" fill="white"/>
<path d="M5.52891 13.1803L3.58571 7.62772L10.862 7.74696L11.6142 13.2834L5.52891 13.1803Z" fill="#FF2B53"/>
<path d="M3.37416 0.961318C5.23767 0.627417 7.23474 3.07134 7.83475 6.41998C8.43475 9.76862 7.41048 12.7539 5.54697 13.0878C3.68346 13.4217 1.68639 10.9778 1.08639 7.62914C0.486383 4.2805 1.51066 1.29522 3.37416 0.961318Z" fill="#FF2B53"/>
<path d="M9.78577 0.731888C12.0416 0.327692 14.3828 2.86025 15.015 6.38851C15.6472 9.91678 14.331 13.1047 12.0751 13.5089C9.81931 13.9131 7.47811 11.3805 6.84592 7.85224C6.21373 4.32397 7.52995 1.13608 9.78577 0.731888Z" fill="#FF2B53"/>
<path d="M4.52053 5.34591C5.26815 5.30618 5.99683 6.2062 6.14809 7.35618C6.29934 8.50615 5.8159 9.4706 5.06828 9.51033C4.32066 9.55006 3.59198 8.65004 3.44073 7.50006C3.28947 6.35009 3.77292 5.38564 4.52053 5.34591Z" fill="white"/>
<path d="M10.1581 5.26424C10.95 5.22216 11.7218 6.17548 11.882 7.39355C12.0422 8.61162 11.5302 9.63317 10.7383 9.67526C9.94639 9.71735 9.17457 8.76403 9.01435 7.54596C8.85414 6.32789 9.36621 5.30633 10.1581 5.26424Z" fill="white"/>
</svg>
