<svg width="26" height="26" viewBox="0 0 26 26" fill="none" xmlns="http://www.w3.org/2000/svg">
<g clip-path="url(#clip0_961_1453)">
<path fill-rule="evenodd" clip-rule="evenodd" d="M4.59308 9.07988C4.25 9.85067 4.25 10.7276 4.25 12.4813V17.9585C4.25 20.3941 4.25 21.6119 4.98223 22.3685C5.67456 23.0839 6.76584 23.1229 8.875 23.125V16.6669C8.875 15.4324 9.85171 14.3752 11.125 14.3752H14.875C16.1483 14.3752 17.125 15.4324 17.125 16.6669V23.125C19.2342 23.1229 20.3254 23.0839 21.0178 22.3685C21.75 21.6119 21.75 20.3941 21.75 17.9585V12.4813C21.75 10.7276 21.75 9.85067 21.4069 9.07988C21.0638 8.3091 20.4195 7.73843 19.1309 6.59709L19.1309 6.59709L17.8809 5.48995C15.5518 3.42699 14.3872 2.39551 13 2.39551C11.6128 2.39551 10.4482 3.42699 8.11906 5.48995L6.86906 6.59709C5.58046 7.73843 4.93615 8.3091 4.59308 9.07988ZM15.125 23.1252V16.6669C15.125 16.4747 14.9824 16.3752 14.875 16.3752H11.125C11.0176 16.3752 10.875 16.4747 10.875 16.6669V23.1252H15.125Z" fill="#1F1F1F"/>
</g>
<defs>
<clipPath id="clip0_961_1453">
<rect width="26" height="26" fill="white"/>
</clipPath>
</defs>
</svg>
