<svg width="26" height="26" viewBox="0 0 26 26" fill="none" xmlns="http://www.w3.org/2000/svg">
<g clip-path="url(#clip0_961_1440)">
<path d="M9.04159 7.00044C9.04159 5.81313 7.37469 5.49842 6.93245 6.60935C5.8627 9.29664 5.08325 11.7006 5.08325 13.0003C5.08325 17.1425 8.62766 20.5003 12.9999 20.5003C17.3722 20.5003 20.9166 17.1425 20.9166 13.0003C20.9166 11.604 20.0169 8.93299 18.8241 6.00548C17.279 2.21318 16.5064 0.317037 15.5528 0.214906C15.2476 0.182226 14.9147 0.240981 14.6424 0.375572C13.7916 0.79619 13.7916 2.86427 13.7916 7.00044C13.7916 8.24307 12.7283 9.25043 11.4166 9.25043C10.1049 9.25043 9.04159 8.24307 9.04159 7.00044Z" fill="#DFE1E7"/>
</g>
<defs>
<clipPath id="clip0_961_1440">
<rect width="26" height="26" fill="white"/>
</clipPath>
</defs>
</svg>
